<svg width="25" height="26" viewBox="0 0 25 26" fill="none" xmlns="http://www.w3.org/2000/svg">
<g clip-path="url(#clip0_2_968)">
<path d="M23.06 4.00098H2.06C1.65375 4.00098 1.30219 4.14941 1.00531 4.44629C0.708435 4.74316 0.559998 5.09473 0.559998 5.50098V8.00879L12.56 12.8135L24.56 8.00879V5.50098C24.56 5.09473 24.4116 4.74316 24.1147 4.44629C23.8178 4.14941 23.4662 4.00098 23.06 4.00098ZM0.559998 10.4697V20.501C0.559998 20.9072 0.708435 21.2588 1.00531 21.5557C1.30219 21.8525 1.65375 22.001 2.06 22.001H23.06C23.4662 22.001 23.8178 21.8525 24.1147 21.5557C24.4116 21.2588 24.56 20.9072 24.56 20.501V10.4697L12.56 15.2744L0.559998 10.4697Z" fill="#008037"/>
</g>
<defs>
<clipPath id="clip0_2_968">
<rect width="24" height="25" fill="white" transform="matrix(1 0 0 -1 0.559998 25.501)"/>
</clipPath>
</defs>
</svg>
