<svg width="25" height="26" viewBox="0 0 25 26" fill="none" xmlns="http://www.w3.org/2000/svg">
<g clip-path="url(#clip0_2_958)">
<path d="M9.48187 6.85742C9.40375 6.0293 9.16937 5.31055 8.77875 4.70117C8.3725 4.0918 7.94281 3.58008 7.48968 3.16602C7.03656 2.75195 6.61469 2.43555 6.22406 2.2168C5.84906 2.01367 5.64594 1.9043 5.61469 1.88867C5.53656 1.85742 5.46234 1.83398 5.39203 1.81836C5.32172 1.80273 5.2475 1.80273 5.16937 1.81836C3.185 2.14648 1.92719 2.72852 1.39594 3.56445C0.864685 4.40039 0.591248 4.8418 0.575623 4.88867C0.559998 4.95117 0.556091 5.01758 0.563904 5.08789C0.571716 5.1582 0.583435 5.22461 0.59906 5.28711C1.78656 8.95898 3.22406 11.9355 4.91156 14.2168C6.61469 16.498 8.32953 18.2949 10.0561 19.6074C11.7827 20.9199 13.4037 21.8574 14.9194 22.4199C16.435 22.9824 17.5991 23.373 18.4116 23.5918C18.5366 23.623 18.6498 23.6543 18.7514 23.6855C18.853 23.7168 18.9428 23.748 19.0209 23.7793C19.0522 23.7949 19.0873 23.8027 19.1264 23.8027C19.1655 23.8027 19.2084 23.8027 19.2553 23.8027C19.3022 23.8027 19.353 23.7988 19.4077 23.791C19.4623 23.7832 19.5131 23.7637 19.56 23.7324C19.6069 23.7168 20.0483 23.373 20.8842 22.7012C21.7202 22.0293 22.2787 20.7949 22.56 18.998C22.5756 18.9199 22.5756 18.8418 22.56 18.7637C22.5444 18.6855 22.5209 18.6152 22.4897 18.5527C22.4584 18.5059 22.0991 18.0527 21.4116 17.1934C20.7241 16.334 19.5287 15.7012 17.8256 15.2949C17.7162 15.2637 17.603 15.2637 17.4858 15.2949C17.3686 15.3262 17.2631 15.3809 17.1694 15.459C16.6381 15.9121 16.0522 16.3418 15.4116 16.748C14.7709 17.1543 14.2944 17.3887 13.9819 17.4512C12.9194 16.9199 11.9741 16.3027 11.1459 15.5996C10.3178 14.8965 9.61468 14.2051 9.03656 13.5254C8.45843 12.8457 8.02093 12.2324 7.72406 11.6855C7.41156 11.1387 7.2475 10.7715 7.23187 10.584C7.20062 10.3652 7.39593 9.93945 7.81781 9.30664C8.23968 8.67383 8.73187 8.05273 9.29437 7.44336C9.35687 7.36523 9.40765 7.27539 9.44672 7.17383C9.48578 7.07227 9.4975 6.9668 9.48187 6.85742Z" fill="#008037"/>
</g>
<defs>
<clipPath id="clip0_2_958">
<rect width="24" height="25" fill="white" transform="matrix(1 0 0 -1 0.559998 25.3105)"/>
</clipPath>
</defs>
</svg>
