<svg width="22" height="21" viewBox="0 0 22 21" fill="none" xmlns="http://www.w3.org/2000/svg">
<g clip-path="url(#clip0_2_585)">
<path d="M19.8774 2.625H1.50244C1.14697 2.625 0.839355 2.75488 0.57959 3.01465C0.319824 3.27441 0.189941 3.58203 0.189941 3.9375V6.13184L10.6899 10.3359L21.1899 6.13184V3.9375C21.1899 3.58203 21.0601 3.27441 20.8003 3.01465C20.5405 2.75488 20.2329 2.625 19.8774 2.625ZM0.189941 8.28516V17.0625C0.189941 17.418 0.319824 17.7256 0.57959 17.9854C0.839355 18.2451 1.14697 18.375 1.50244 18.375H19.8774C20.2329 18.375 20.5405 18.2451 20.8003 17.9854C21.0601 17.7256 21.1899 17.418 21.1899 17.0625V8.28516L10.6899 12.4893L0.189941 8.28516Z" fill="#008037"/>
</g>
<defs>
<clipPath id="clip0_2_585">
<rect width="21" height="21" fill="white" transform="matrix(1 0 0 -1 0.189941 21)"/>
</clipPath>
</defs>
</svg>
