<svg width="33" height="33" viewBox="0 0 33 33" fill="none" xmlns="http://www.w3.org/2000/svg">
<g clip-path="url(#clip0_2_982)">
<path d="M16.75 3.25586C18.8958 3.25586 20.2969 3.26107 20.9531 3.27148C21.6094 3.2819 22.3646 3.30794 23.2188 3.34961C23.9896 3.39128 24.6042 3.4694 25.0625 3.58398C25.5208 3.69857 25.8958 3.80794 26.1875 3.91211C26.5625 4.05794 26.8906 4.22461 27.1719 4.41211C27.4531 4.59961 27.7396 4.82878 28.0312 5.09961C28.3021 5.39128 28.5312 5.67773 28.7188 5.95898C28.9062 6.24023 29.0729 6.56836 29.2188 6.94336C29.3229 7.23503 29.4323 7.61003 29.5469 8.06836C29.6615 8.52669 29.7396 9.14128 29.7812 9.91211C29.8229 10.7663 29.849 11.5215 29.8594 12.1777C29.8698 12.834 29.875 14.235 29.875 16.3809C29.875 18.5267 29.8698 19.9277 29.8594 20.584C29.849 21.2402 29.8229 21.9954 29.7812 22.8496C29.7396 23.6204 29.6615 24.235 29.5469 24.6934C29.4323 25.1517 29.3229 25.5267 29.2188 25.8184C29.0729 26.1934 28.9062 26.5215 28.7188 26.8027C28.5312 27.084 28.3021 27.3704 28.0312 27.6621C27.7396 27.9329 27.4531 28.1621 27.1719 28.3496C26.8906 28.5371 26.5625 28.7038 26.1875 28.8496C25.8958 28.9538 25.5208 29.0632 25.0625 29.1777C24.6042 29.2923 23.9896 29.3704 23.2188 29.4121C22.3646 29.4538 21.6094 29.4798 20.9531 29.4902C20.2969 29.5007 18.8958 29.5059 16.75 29.5059C14.6042 29.5059 13.2031 29.5007 12.5469 29.4902C11.8906 29.4798 11.1354 29.4538 10.2812 29.4121C9.51042 29.3704 8.89583 29.2923 8.4375 29.1777C7.97917 29.0632 7.60417 28.9538 7.3125 28.8496C6.9375 28.7038 6.60938 28.5371 6.32812 28.3496C6.04688 28.1621 5.76042 27.9329 5.46875 27.6621C5.19792 27.3704 4.96875 27.084 4.78125 26.8027C4.59375 26.5215 4.42708 26.1934 4.28125 25.8184C4.17708 25.5267 4.06771 25.1517 3.95312 24.6934C3.83854 24.235 3.76042 23.6204 3.71875 22.8496C3.67708 21.9954 3.65104 21.2402 3.64062 20.584C3.63021 19.9277 3.625 18.5267 3.625 16.3809C3.625 14.235 3.63021 12.834 3.64062 12.1777C3.65104 11.5215 3.67708 10.7663 3.71875 9.91211C3.76042 9.14128 3.83854 8.52669 3.95312 8.06836C4.06771 7.61003 4.17708 7.23503 4.28125 6.94336C4.42708 6.56836 4.59375 6.24023 4.78125 5.95898C4.96875 5.67773 5.19792 5.39128 5.46875 5.09961C5.76042 4.82878 6.04688 4.59961 6.32812 4.41211C6.60938 4.22461 6.9375 4.05794 7.3125 3.91211C7.60417 3.80794 7.97917 3.69857 8.4375 3.58398C8.89583 3.4694 9.51042 3.39128 10.2812 3.34961C11.1354 3.30794 11.8906 3.2819 12.5469 3.27148C13.2031 3.26107 14.6042 3.25586 16.75 3.25586ZM16.75 0.380859C14.5833 0.380859 13.1562 0.386068 12.4688 0.396484C11.7812 0.406901 11.0104 0.432943 10.1562 0.474609C9.30208 0.516276 8.56771 0.599609 7.95312 0.724609C7.33854 0.849609 6.78125 1.01628 6.28125 1.22461C5.73958 1.43294 5.23958 1.68294 4.78125 1.97461C4.32292 2.26628 3.875 2.63086 3.4375 3.06836C3 3.50586 2.63542 3.95378 2.34375 4.41211C2.05208 4.87044 1.80208 5.37044 1.59375 5.91211C1.38542 6.41211 1.21875 6.9694 1.09375 7.58398C0.96875 8.19857 0.885417 8.93294 0.84375 9.78711C0.802083 10.6413 0.776042 11.4121 0.765625 12.0996C0.755208 12.7871 0.75 14.2142 0.75 16.3809C0.75 18.5475 0.755208 19.9746 0.765625 20.6621C0.776042 21.3496 0.802083 22.1204 0.84375 22.9746C0.885417 23.8288 0.96875 24.5632 1.09375 25.1777C1.21875 25.7923 1.38542 26.3496 1.59375 26.8496C1.80208 27.3913 2.05208 27.8913 2.34375 28.3496C2.63542 28.8079 3 29.2559 3.4375 29.6934C3.875 30.1309 4.32292 30.4954 4.78125 30.7871C5.23958 31.0788 5.73958 31.3288 6.28125 31.5371C6.78125 31.7454 7.33854 31.9121 7.95312 32.0371C8.56771 32.1621 9.30208 32.2454 10.1562 32.2871C11.0104 32.3288 11.7812 32.3548 12.4688 32.3652C13.1562 32.3757 14.5833 32.3809 16.75 32.3809C18.9167 32.3809 20.3438 32.3757 21.0312 32.3652C21.7188 32.3548 22.4896 32.3288 23.3438 32.2871C24.1979 32.2454 24.9323 32.1621 25.5469 32.0371C26.1615 31.9121 26.7188 31.7454 27.2188 31.5371C27.7604 31.3288 28.2604 31.0788 28.7188 30.7871C29.1771 30.4954 29.625 30.1309 30.0625 29.6934C30.5 29.2559 30.8646 28.8079 31.1562 28.3496C31.4479 27.8913 31.6979 27.3913 31.9062 26.8496C32.1146 26.3496 32.2812 25.7923 32.4062 25.1777C32.5312 24.5632 32.6146 23.8288 32.6562 22.9746C32.6979 22.1204 32.724 21.3496 32.7344 20.6621C32.7448 19.9746 32.75 18.5475 32.75 16.3809C32.75 14.2142 32.7448 12.7871 32.7344 12.0996C32.724 11.4121 32.6979 10.6413 32.6562 9.78711C32.6146 8.93294 32.5312 8.19857 32.4062 7.58398C32.2812 6.9694 32.1146 6.41211 31.9062 5.91211C31.6979 5.37044 31.4479 4.87044 31.1562 4.41211C30.8646 3.95378 30.5 3.50586 30.0625 3.06836C29.625 2.63086 29.1771 2.26628 28.7188 1.97461C28.2604 1.68294 27.7604 1.43294 27.2188 1.22461C26.7188 1.01628 26.1615 0.849609 25.5469 0.724609C24.9323 0.599609 24.1979 0.516276 23.3438 0.474609C22.4896 0.432943 21.7188 0.406901 21.0312 0.396484C20.3438 0.386068 18.9167 0.380859 16.75 0.380859ZM16.75 8.16211C15.625 8.16211 14.5625 8.38086 13.5625 8.81836C12.5625 9.23503 11.6875 9.81836 10.9375 10.5684C10.1875 11.3184 9.60417 12.1934 9.1875 13.1934C8.75 14.1934 8.53125 15.2559 8.53125 16.3809C8.53125 17.5059 8.75 18.5684 9.1875 19.5684C9.60417 20.5684 10.1875 21.4434 10.9375 22.1934C11.6875 22.9434 12.5625 23.5267 13.5625 23.9434C14.5625 24.3809 15.625 24.5996 16.75 24.5996C17.875 24.5996 18.9375 24.3809 19.9375 23.9434C20.9375 23.5267 21.8125 22.9434 22.5625 22.1934C23.3125 21.4434 23.8958 20.5684 24.3125 19.5684C24.75 18.5684 24.9688 17.5059 24.9688 16.3809C24.9688 15.2559 24.75 14.1934 24.3125 13.1934C23.8958 12.1934 23.3125 11.3184 22.5625 10.5684C21.8125 9.81836 20.9375 9.23503 19.9375 8.81836C18.9375 8.38086 17.875 8.16211 16.75 8.16211ZM16.75 21.7246C15.2708 21.7246 14.0104 21.2038 12.9688 20.1621C11.9271 19.1204 11.4062 17.86 11.4062 16.3809C11.4062 14.9017 11.9271 13.6413 12.9688 12.5996C14.0104 11.5579 15.2708 11.0371 16.75 11.0371C18.2292 11.0371 19.4896 11.5579 20.5312 12.5996C21.5729 13.6413 22.0938 14.9017 22.0938 16.3809C22.0938 17.86 21.5729 19.1204 20.5312 20.1621C19.4896 21.2038 18.2292 21.7246 16.75 21.7246ZM27.2188 7.84961C27.2188 8.37044 27.0312 8.81836 26.6562 9.19336C26.2812 9.56836 25.8229 9.75586 25.2812 9.75586C24.7604 9.75586 24.3125 9.56836 23.9375 9.19336C23.5625 8.81836 23.375 8.37044 23.375 7.84961C23.375 7.30794 23.5625 6.84961 23.9375 6.47461C24.3125 6.09961 24.7604 5.91211 25.2812 5.91211C25.8229 5.91211 26.2812 6.09961 26.6562 6.47461C27.0312 6.84961 27.2188 7.30794 27.2188 7.84961Z" fill="white"/>
</g>
<defs>
<clipPath id="clip0_2_982">
<rect width="32" height="32" fill="white" transform="matrix(1 0 0 -1 0.75 32.3809)"/>
</clipPath>
</defs>
</svg>
