<svg width="73" height="17" viewBox="0 0 73 17" fill="none" xmlns="http://www.w3.org/2000/svg">
<g clip-path="url(#clip0_2_800)">
<path d="M12.4685 1.43828C10.5423 1.4629 6.52384 1.5429 5.27461 1.8629C4.35769 2.10905 3.68076 2.84751 3.43461 3.70905C3.00999 5.37059 3.01615 8.8229 3.01615 8.8229C3.01615 8.8229 3.00999 12.2752 3.43461 13.9367C3.67461 14.8598 4.41307 15.5367 5.27461 15.7829C6.92999 16.2137 13.5208 16.2014 13.5208 16.2014C13.5208 16.2014 20.1054 16.2075 21.7669 15.7829C22.69 15.5367 23.3608 14.7983 23.6069 13.9367C24.0315 12.2752 24.0254 8.8229 24.0254 8.8229C24.0254 8.8229 24.0931 5.37059 23.6069 3.70905C23.3608 2.78597 22.6285 2.10905 21.7669 1.8629C20.1177 1.43213 13.5269 1.43828 13.5269 1.43828C13.5269 1.43828 13.1146 1.43213 12.4746 1.43828H12.4685ZM56.9054 1.99213V15.0875H58.6161L58.8069 14.2444H58.8623C59.0469 14.5521 59.2992 14.786 59.6069 14.9706C59.9146 15.1552 60.2715 15.2167 60.6408 15.2167C61.3177 15.2167 61.8654 14.9152 62.1731 14.2383C62.4808 13.5614 62.6715 12.5767 62.6715 11.2229V9.74597C62.6715 8.76136 62.6038 7.96136 62.4808 7.34597C62.3577 6.79828 62.1731 6.36751 61.8654 6.05982C61.5577 5.81367 61.1885 5.69674 60.6962 5.69674C60.3331 5.69674 59.97 5.81367 59.6623 5.99828C59.3608 6.1829 59.0408 6.49059 58.9177 6.85982V1.99828H56.8992L56.9054 1.99213ZM26.1423 2.47213L28.5423 11.026L28.6531 15.1552H30.69V11.026L33.0715 2.47213H30.9977L30.1361 6.3552C29.89 7.51828 29.6992 8.31828 29.6377 8.81059H29.5823C29.4592 8.13367 29.2685 7.33367 29.0838 6.3552L28.2408 2.47213H26.1485H26.1423ZM44.3515 2.47213V4.13982H46.4438V15.1552H48.4623V4.13982H50.5546C50.5546 4.13982 50.5546 2.47213 50.4992 2.47213H44.3515ZM11.4346 5.6229L16.9115 8.81059L11.4346 11.9429V5.61674V5.6229ZM66.45 5.67828C65.4038 5.67828 64.6715 6.04136 64.2408 6.65674C63.8161 7.26597 63.6315 8.25674 63.6315 9.67213V11.266C63.6315 12.6198 63.8161 13.666 64.2408 14.2814C64.6715 14.9583 65.3485 15.2598 66.3946 15.2598C67.2561 15.2598 67.8592 15.0752 68.3515 14.6444C68.7823 14.2137 69.0223 13.6044 69.0223 12.7429V12.4352L67.2377 12.306C67.2377 12.9214 67.1885 13.2906 67.0654 13.5367C67.0038 13.7829 66.7577 13.9183 66.45 13.9183C66.2654 13.9183 66.0746 13.8506 65.9515 13.7275C65.8285 13.5429 65.7669 13.3644 65.7054 13.0567C65.6438 12.7491 65.65 12.3121 65.65 11.6967V11.2167L69.1638 11.1614V9.54905C69.1638 8.56444 69.1023 7.83828 68.9177 7.28444C68.7946 6.73674 68.4808 6.30597 68.1115 6.05982C67.6808 5.81367 67.2008 5.69674 66.4623 5.69674L66.45 5.67828ZM35.3792 5.73367C34.7085 5.73367 34.1423 5.84444 33.7115 6.15213C33.2808 6.39828 32.9731 6.84136 32.7946 7.45674C32.61 8.07213 32.4869 8.85367 32.4869 9.83828V11.1983C32.4869 12.1214 32.5485 12.9091 32.7331 13.5244C32.8562 14.0783 33.1638 14.5214 33.5946 14.8291C34.0192 15.1367 34.6469 15.2475 35.3238 15.3091C36.0561 15.3091 36.6038 15.1367 37.0346 14.8906C37.4592 14.6444 37.7054 14.2198 37.9515 13.6044C38.1915 12.9891 38.2531 12.1891 38.2531 11.2044V9.84444C38.2531 8.85982 38.13 8.07828 37.9515 7.4629C37.7669 6.9152 37.4592 6.46597 37.0346 6.15828C36.6038 5.85059 36.0623 5.73982 35.3854 5.73982L35.3792 5.73367ZM42.8746 5.78905V13.1121C42.8131 13.2967 42.6962 13.4075 42.5115 13.5306C42.3885 13.6537 42.1977 13.7214 42.0131 13.7214C41.8285 13.7214 41.6562 13.6598 41.5946 13.4752C41.5331 13.2906 41.4838 13.0444 41.4838 12.6137V5.85059H39.3915V12.7491C39.3915 13.6106 39.5023 14.2198 39.81 14.6506C40.1115 15.0814 40.5546 15.266 41.17 15.266C42.0315 15.266 42.6962 14.8414 43.1269 13.9798H43.1823L43.3731 15.0752H44.9669V5.85059C44.9669 5.85059 42.8746 5.85059 42.8746 5.7952V5.78905ZM53.5269 5.78905V13.1121C53.4654 13.2967 53.3485 13.4075 53.1638 13.5306C53.0408 13.6537 52.85 13.7214 52.6654 13.7214C52.4808 13.7214 52.3085 13.6598 52.2469 13.4752C52.1854 13.2906 52.1177 13.0444 52.1177 12.6137V5.85059H50.0254V12.7491C50.0254 13.6106 50.1546 14.2198 50.4623 14.6506C50.77 15.0814 51.1885 15.266 51.8038 15.266C52.6592 15.266 53.3485 14.8414 53.7792 13.9798H53.8346L54.0069 15.0752H55.6192V5.85059C55.6192 5.85059 53.5269 5.85059 53.5269 5.7952V5.78905ZM66.3885 7.0752C66.6346 7.0752 66.7454 7.1429 66.8685 7.26597C66.9915 7.45059 67.0531 7.62905 67.1146 7.93674C67.1762 8.24444 67.17 8.68136 67.17 9.29674V9.96751H65.6315V9.29674C65.6315 8.68136 65.6315 8.24444 65.6869 7.93674C65.6869 7.69059 65.7546 7.44444 65.8777 7.32136C66.0008 7.13674 66.1915 7.0752 66.3762 7.0752H66.3885ZM35.3177 7.14905C35.6254 7.14905 35.81 7.25982 35.9331 7.56751C36.05 7.87521 36.1054 8.36751 36.1054 9.04444V11.9244C36.1054 12.6014 36.0562 13.0937 35.9331 13.4014C35.81 13.7091 35.6254 13.8198 35.3177 13.8198C35.01 13.8198 34.8315 13.7091 34.7085 13.4014C34.5854 13.0937 34.5177 12.6014 34.5177 11.9244V9.04444C34.5177 8.36751 34.5854 7.87521 34.7085 7.56751C34.8315 7.25982 35.01 7.14905 35.3177 7.14905ZM59.7361 7.20444C59.9208 7.20444 60.1115 7.26597 60.2346 7.45059C60.3577 7.63521 60.4008 7.8629 60.4623 8.29367C60.5238 8.6629 60.5362 9.2229 60.5362 9.96136L60.5915 11.1306C60.5915 11.8075 60.5915 12.3552 60.5362 12.7244C60.4746 13.0937 60.4192 13.3891 60.2346 13.5121C60.1115 13.6967 59.9269 13.7583 59.6808 13.7583C59.4962 13.7583 59.3669 13.7091 59.1823 13.6475C59.0592 13.586 58.9423 13.4691 58.8192 13.2844V8.05367C58.8808 7.80751 58.9977 7.6229 59.1823 7.43828C59.3669 7.25367 59.5515 7.19213 59.7361 7.19213V7.20444Z" fill="white" stroke="black" stroke-opacity="0.15" stroke-width="1.23077"/>
<path d="M12.4685 1.43828C10.5423 1.4629 6.52384 1.5429 5.27461 1.8629C4.35769 2.10905 3.68076 2.84751 3.43461 3.70905C3.00999 5.37059 3.01615 8.8229 3.01615 8.8229C3.01615 8.8229 3.00999 12.2752 3.43461 13.9367C3.67461 14.8598 4.41307 15.5367 5.27461 15.7829C6.92999 16.2137 13.5208 16.2014 13.5208 16.2014C13.5208 16.2014 20.1054 16.2075 21.7669 15.7829C22.69 15.5367 23.3608 14.7983 23.6069 13.9367C24.0315 12.2752 24.0254 8.8229 24.0254 8.8229C24.0254 8.8229 24.0931 5.37059 23.6069 3.70905C23.3608 2.78597 22.6285 2.10905 21.7669 1.8629C20.1177 1.43213 13.5269 1.43828 13.5269 1.43828C13.5269 1.43828 13.1146 1.43213 12.4746 1.43828H12.4685ZM56.9054 1.99213V15.0875H58.6161L58.8069 14.2444H58.8623C59.0469 14.5521 59.2992 14.786 59.6069 14.9706C59.9146 15.1552 60.2715 15.2167 60.6408 15.2167C61.3177 15.2167 61.8654 14.9152 62.1731 14.2383C62.4808 13.5614 62.6715 12.5767 62.6715 11.2229V9.74597C62.6715 8.76136 62.6038 7.96136 62.4808 7.34597C62.3577 6.79828 62.1731 6.36751 61.8654 6.05982C61.5577 5.81367 61.1885 5.69674 60.6962 5.69674C60.3331 5.69674 59.97 5.81367 59.6623 5.99828C59.3608 6.1829 59.0408 6.49059 58.9177 6.85982V1.99828H56.8992L56.9054 1.99213ZM26.1423 2.47213L28.5423 11.026L28.6531 15.1552H30.69V11.026L33.0715 2.47213H30.9977L30.1361 6.3552C29.89 7.51828 29.6992 8.31828 29.6377 8.81059H29.5823C29.4592 8.13367 29.2685 7.33367 29.0838 6.3552L28.2408 2.47213H26.1485H26.1423ZM44.3515 2.47213V4.13982H46.4438V15.1552H48.4623V4.13982H50.5546C50.5546 4.13982 50.5546 2.47213 50.4992 2.47213H44.3515ZM11.4346 5.6229L16.9115 8.81059L11.4346 11.9429V5.61674V5.6229ZM66.45 5.67828C65.4038 5.67828 64.6715 6.04136 64.2408 6.65674C63.8161 7.26597 63.6315 8.25674 63.6315 9.67213V11.266C63.6315 12.6198 63.8161 13.666 64.2408 14.2814C64.6715 14.9583 65.3485 15.2598 66.3946 15.2598C67.2561 15.2598 67.8592 15.0752 68.3515 14.6444C68.7823 14.2137 69.0223 13.6044 69.0223 12.7429V12.4352L67.2377 12.306C67.2377 12.9214 67.1885 13.2906 67.0654 13.5367C67.0038 13.7829 66.7577 13.9183 66.45 13.9183C66.2654 13.9183 66.0746 13.8506 65.9515 13.7275C65.8285 13.5429 65.7669 13.3644 65.7054 13.0567C65.6438 12.7491 65.65 12.3121 65.65 11.6967V11.2167L69.1638 11.1614V9.54905C69.1638 8.56444 69.1023 7.83828 68.9177 7.28444C68.7946 6.73674 68.4808 6.30597 68.1115 6.05982C67.6808 5.81367 67.2008 5.69674 66.4623 5.69674L66.45 5.67828ZM35.3792 5.73367C34.7085 5.73367 34.1423 5.84444 33.7115 6.15213C33.2808 6.39828 32.9731 6.84136 32.7946 7.45674C32.61 8.07213 32.4869 8.85367 32.4869 9.83828V11.1983C32.4869 12.1214 32.5485 12.9091 32.7331 13.5244C32.8562 14.0783 33.1638 14.5214 33.5946 14.8291C34.0192 15.1367 34.6469 15.2475 35.3238 15.3091C36.0561 15.3091 36.6038 15.1367 37.0346 14.8906C37.4592 14.6444 37.7054 14.2198 37.9515 13.6044C38.1915 12.9891 38.2531 12.1891 38.2531 11.2044V9.84444C38.2531 8.85982 38.13 8.07828 37.9515 7.4629C37.7669 6.9152 37.4592 6.46597 37.0346 6.15828C36.6038 5.85059 36.0623 5.73982 35.3854 5.73982L35.3792 5.73367ZM42.8746 5.78905V13.1121C42.8131 13.2967 42.6962 13.4075 42.5115 13.5306C42.3885 13.6537 42.1977 13.7214 42.0131 13.7214C41.8285 13.7214 41.6562 13.6598 41.5946 13.4752C41.5331 13.2906 41.4838 13.0444 41.4838 12.6137V5.85059H39.3915V12.7491C39.3915 13.6106 39.5023 14.2198 39.81 14.6506C40.1115 15.0814 40.5546 15.266 41.17 15.266C42.0315 15.266 42.6962 14.8414 43.1269 13.9798H43.1823L43.3731 15.0752H44.9669V5.85059C44.9669 5.85059 42.8746 5.85059 42.8746 5.7952V5.78905ZM53.5269 5.78905V13.1121C53.4654 13.2967 53.3485 13.4075 53.1638 13.5306C53.0408 13.6537 52.85 13.7214 52.6654 13.7214C52.4808 13.7214 52.3085 13.6598 52.2469 13.4752C52.1854 13.2906 52.1177 13.0444 52.1177 12.6137V5.85059H50.0254V12.7491C50.0254 13.6106 50.1546 14.2198 50.4623 14.6506C50.77 15.0814 51.1885 15.266 51.8038 15.266C52.6592 15.266 53.3485 14.8414 53.7792 13.9798H53.8346L54.0069 15.0752H55.6192V5.85059C55.6192 5.85059 53.5269 5.85059 53.5269 5.7952V5.78905ZM66.3885 7.0752C66.6346 7.0752 66.7454 7.1429 66.8685 7.26597C66.9915 7.45059 67.0531 7.62905 67.1146 7.93674C67.1762 8.24444 67.17 8.68136 67.17 9.29674V9.96751H65.6315V9.29674C65.6315 8.68136 65.6315 8.24444 65.6869 7.93674C65.6869 7.69059 65.7546 7.44444 65.8777 7.32136C66.0008 7.13674 66.1915 7.0752 66.3762 7.0752H66.3885ZM35.3177 7.14905C35.6254 7.14905 35.81 7.25982 35.9331 7.56751C36.05 7.87521 36.1054 8.36751 36.1054 9.04444V11.9244C36.1054 12.6014 36.0562 13.0937 35.9331 13.4014C35.81 13.7091 35.6254 13.8198 35.3177 13.8198C35.01 13.8198 34.8315 13.7091 34.7085 13.4014C34.5854 13.0937 34.5177 12.6014 34.5177 11.9244V9.04444C34.5177 8.36751 34.5854 7.87521 34.7085 7.56751C34.8315 7.25982 35.01 7.14905 35.3177 7.14905ZM59.7361 7.20444C59.9208 7.20444 60.1115 7.26597 60.2346 7.45059C60.3577 7.63521 60.4008 7.8629 60.4623 8.29367C60.5238 8.6629 60.5362 9.2229 60.5362 9.96136L60.5915 11.1306C60.5915 11.8075 60.5915 12.3552 60.5362 12.7244C60.4746 13.0937 60.4192 13.3891 60.2346 13.5121C60.1115 13.6967 59.9269 13.7583 59.6808 13.7583C59.4962 13.7583 59.3669 13.7091 59.1823 13.6475C59.0592 13.586 58.9423 13.4691 58.8192 13.2844V8.05367C58.8808 7.80751 58.9977 7.6229 59.1823 7.43828C59.3669 7.25367 59.5515 7.19213 59.7361 7.19213V7.20444Z" fill="white"/>
</g>
<defs>
<clipPath id="clip0_2_800">
<rect width="72" height="16" fill="white" transform="translate(0.0500031 0.829102)"/>
</clipPath>
</defs>
</svg>
