<svg width="36" height="37" viewBox="0 0 36 37" fill="none" xmlns="http://www.w3.org/2000/svg">
<path d="M20.2 15.0193V10.5693L27.99 18.3593L20.2 26.1493V21.5893C16.27 21.5193 12.1 22.6393 9.34 25.5893C8.8 25.9593 7.6 28.1193 8.12 26.4793C9.08 22.1493 11.8 18.0093 15.98 16.2093C17.31 15.6093 18.74 15.2293 20.19 15.0193H20.2Z" fill="white" stroke="black" stroke-opacity="0.15" stroke-width="2"/>
<path d="M20.2 15.0193V10.5693L27.99 18.3593L20.2 26.1493V21.5893C16.27 21.5193 12.1 22.6393 9.34 25.5893C8.8 25.9593 7.6 28.1193 8.12 26.4793C9.08 22.1493 11.8 18.0093 15.98 16.2093C17.31 15.6093 18.74 15.2293 20.19 15.0193H20.2Z" fill="white"/>
</svg>
